HIERARCHY
ROOT ui
{
	 OFFSET 0 0 0
	 CHANNELS 3 XPosition YPosition Z Position
	 EndSite
	 {
	 OFFSET 0 -1 0
	 }
}
ROOT li
{
	 OFFSET 0 0 0
	 CHANNELS 3 XPosition YPosition Z Position
	 EndSite
	 {
	 OFFSET 0 -1 0
	 }
}
ROOT ul
{
	 OFFSET 0 0 0
	 CHANNELS 3 XPosition YPosition Z Position
	 EndSite
	 {
	 OFFSET 0 -1 0
	 }
}
ROOT ll
{
	 OFFSET 0 0 0
	 CHANNELS 3 XPosition YPosition Z Position
	 EndSite
	 {
	 OFFSET 0 -1 0
	 }
}
ROOT tt
{
	 OFFSET 0 0 0
	 CHANNELS 3 XPosition YPosition Z Position
	 EndSite
	 {
	 OFFSET 0 -1 0
	 }
}
ROOT tb
{
	 OFFSET 0 0 0
	 CHANNELS 3 XPosition YPosition Z Position
	 EndSite
	 {
	 OFFSET 0 -1 0
	 }
}
ROOT td
{
	 OFFSET 0 0 0
	 CHANNELS 3 XPosition YPosition Z Position
	 EndSite
	 {
	 OFFSET 0 -1 0
	 }
}
ROOT v
{
	 OFFSET 0 0 0
	 CHANNELS 3 XPosition YPosition Z Position
	 EndSite
	 {
	 OFFSET 0 -1 0
	 }
}
ROOT bn
{
	 OFFSET 0 0 0
	 CHANNELS 3 XPosition YPosition Z Position
	 EndSite
	 {
	 OFFSET 0 -1 0
	 }
}
MOTION
Frames: 26
Frame Time: 0.002
0.001420146942138672	-7.937099784612656E-5	0		0.4338068542480469	-2.304251953125	0		-1.0401641845703125	-0.02850745391845703	0		-0.6407891845703125	-2.33315478515625	0		1.4427730712890625	-0.4920790100097656	0		3.241534912109375	-0.018644115447998048	0		4.68826171875	0.07834531402587891	0		5.61973486328125	0.0751865463256836	0		-0.29627572631835936	5.86540087890625	0		
-8.337900042533874E-4	-0.002827380895614624	0		0.43467861938476565	-2.304033447265625	0		-1.114344482421875	-0.026148086547851564	0		-0.7206838989257812	-2.317688232421875	0		1.44052001953125	-0.49577783203125	0		3.257311279296875	-0.019567907333374022	0		4.6949404296875	0.07161444854736328	0		5.62030615234375	0.075864013671875	0		-0.2824931640625	5.87738671875	0		
-0.025028133392333986	-0.0012302149534225463	0		0.4594610900878906	-2.309197021484375	0		-1.0466922607421876	-0.03504537200927734	0		-0.6410821533203125	-2.33476123046875	0		1.441323486328125	-0.4955278015136719	0		3.2271181640625	-0.017765165328979492	0		4.68983642578125	0.07906904602050781	0		5.61375146484375	0.07853947448730468	0		-0.2950944519042969	5.86578564453125	0		
-0.02426719856262207	-0.00103391695022583	0		0.4094316711425781	-2.30017919921875	0		-1.1127952880859375	-0.025824605941772463	0		-0.6972523193359375	-2.33468408203125	0		1.4510679931640624	-0.4974248046875	0		3.25463916015625	-0.03288578414916992	0		4.6905947265625	0.07942213439941406	0		5.61723046875	0.09119625091552734	0		-0.27940399169921876	5.87373486328125	0		
-0.020499698638916014	0.002109710931777954	0		0.4412530822753906	-2.298463623046875	0		-1.0252584228515624	-0.03803947067260742	0		-0.6923790893554688	-2.329577880859375	0		1.4579140625	-0.49028204345703125	0		3.251771484375	-0.006530162811279297	0		4.69927978515625	0.07763758850097656	0		5.62068017578125	0.10383132934570312	0		-0.27887051391601564	5.87391796875	0		
-0.01982891273498535	0.0022952880859375	0		0.44199151611328125	-2.298264404296875	0		-1.11140234375	-0.025514438629150392	0		-0.6566913452148437	-2.332962890625	0		1.4465850830078124	-0.4908638610839844	0		3.22927197265625	-0.016884719848632813	0		4.69198095703125	0.08008771514892578	0		5.61823095703125	0.09243443298339844	0		-0.27934075927734375	5.87611181640625	0		
0.002722388982772827	-0.0018715970516204833	0		0.4645546875	-2.3054189453125	0		-1.0358096923828124	-0.02754317092895508	0		-0.67094970703125	-2.3285654296875	0		1.4472147216796876	-0.4906476135253906	0		3.229889404296875	-0.016622745513916015	0		4.7025791015625	0.07923009490966797	0		5.6228642578125	0.07898744201660156	0		-0.29204595947265627	5.8654892578125	0		
-0.02169618034362793	-3.0838999152183534E-4	0		0.43716787719726563	-2.304799072265625	0		-1.11833056640625	-0.03208943176269531	0		-0.6472952270507812	-2.32577001953125	0		1.4857041015625	-0.4960435791015625	0		3.236341796875	-0.023479434967041017	0		4.68906298828125	0.07471737670898437	0		5.6161484375	0.08147927856445313	0		-0.4269007263183594	5.84777685546875	0		
-0.0033134920597076415	-0.008429163932800294	0		0.43771054077148436	-2.304632080078125	0		-1.1097108154296875	-0.02507046699523926	0		-0.696918701171875	-2.335832275390625	0		1.454209716796875	-0.49635958862304685	0		3.25606982421875	-0.00957306957244873	0		4.693666015625	0.08088040161132813	0		5.63001904296875	0.07445606994628906	0		-0.4113326416015625	5.8566953125	0		
0.007304912090301514	0.001563472032546997	0		0.4153019104003906	-2.297118408203125	0		-1.1092479248046876	-0.02492745780944824	0		-0.6564132690429687	-2.33431396484375	0		1.4546759033203125	-0.49619873046875	0		3.2373154296875	-0.023099956512451173	0		4.69722216796875	0.08701599884033204	0		5.62270703125	0.1062179946899414	0		-0.2765977783203125	5.87573876953125	0		
0.007725471973419189	0.0017040719985961913	0		0.4426878662109375	-2.299401123046875	0		-1.108827392578125	-0.024786891937255858	0		-0.701814453125	-2.322453125	0		1.4491912841796875	-0.4899647216796875	0		3.262826904296875	-0.017352096557617186	0		4.694548828125	0.08120454406738281	0		5.6264833984375	0.0924875717163086	0		-0.2761774291992187	5.87587939453125	0		
0.008108650207519531	0.0018348619937896729	0		0.438977783203125	-2.304209716796875	0		-1.1084443359375	-0.0246486759185791	0		-0.6356117553710937	-2.33335205078125	0		1.4905347900390624	-0.4924866027832031	0		3.238118896484375	-0.02284994888305664	0		4.6949326171875	0.08130415344238281	0		5.626755859375	0.092650390625	0		-0.29089453125	5.86724853515625	0		
0.0023640589714050294	-0.003949002981185913	0		0.4632147521972656	-2.309470458984375	0		-1.1202513427734375	-0.034323093414306644	0		-0.7180950317382813	-2.31992041015625	0		1.4468511962890624	-0.4936937561035156	0		3.244482421875	-0.02186573791503906	0		4.69528271484375	0.08136349487304688	0		5.62478515625	0.08070714569091797	0		-0.4247815246582031	5.84848046875	0		
-0.019253940582275392	5.082209706306457E-4	0		0.412618408203125	-2.30056689453125	0		-1.0959385986328125	-0.03456681823730469	0		-0.6570670776367188	-2.335751953125	0		1.45612548828125	-0.4957513122558594	0		3.2436572265625	-0.0308001766204834	0		4.6904755859375	0.07346360015869141	0		5.6249853515625	0.07725527954101563	0		-0.2749137268066406	5.87525439453125	0		
0.0199169864654541	-0.0070017709732055665	0		0.47349258422851564	-2.323432373046875	0		-1.0915909423828125	-0.030499931335449218	0		-0.7128170776367188	-2.333750732421875	0		1.462508544921875	-0.4887803955078125	0		3.271348388671875	-0.005207223892211914	0		4.69898291015625	0.08732093048095703	0		5.63452392578125	0.08721790313720704	0		-0.2744801635742187	5.8753642578125	0		
-0.015662967681884767	0.0036592729091644285	0		0.4440631103515625	-2.29888134765625	0		-1.0204215698242187	-0.03649191284179688	0		-0.6305447998046875	-2.328928955078125	0		1.45664208984375	-0.49563397216796873	0		3.2334375	-0.015609800338745117	0		4.69614892578125	0.08132254028320313	0		5.6211982421875	0.09453186798095703	0		-0.27402969360351564	5.87646728515625	0		
0.00955079460144043	0.002352876901626587	0		0.4401379089355469	-2.303744384765625	0		-1.1070054931640625	-0.02399411201477051	0		-0.7043515625	-2.325649169921875	0		1.456857666015625	-0.49559591674804687	0		3.2605712890625	-0.022059148788452148	0		4.6922900390625	0.07531299591064453	0		5.61842822265625	0.0823567657470703	0		-0.42206634521484376	5.8479091796875	0		
-0.022330167770385743	-0.003056404113769531	0		0.4382286071777344	-2.305646240234375	0		-1.0439786376953124	-0.035866046905517576	0		-0.6363656005859375	-2.334615966796875	0		1.44808154296875	-0.4934259948730469	0		3.239767333984375	-0.022767446517944337	0		4.69659765625	0.08115292358398438	0		5.61857275390625	0.08213679504394532	0		-0.2873171691894531	5.86688134765625	0		
0.0069051551818847656	-4.375790059566498E-4	0		0.4403574523925781	-2.303616943359375	0		-1.094766357421875	-0.033933902740478514	0		-0.7041337280273438	-2.325431396484375	0		1.457219970703125	-0.4955487060546875	0		3.255098876953125	-0.01406001853942871	0		4.70166455078125	0.07296195983886719	0		5.62580126953125	0.07642034912109374	0		-0.2727450256347656	5.87574853515625	0		
0.010130476951599122	0.0025905160903930665	0		0.44451715087890625	-2.298623291015625	0		-1.09458984375	-0.033811046600341794	0		-0.65620361328125	-2.335088623046875	0		1.457376953125	-0.4955337219238281	0		3.240134765625	-0.02288090705871582	0		4.70006884765625	0.0868698501586914	0		5.6217568359375	0.09361219787597656	0		-0.2723027648925781	5.8768369140625	0		
0.010299886703491211	0.002665381908416748	0		0.4445883483886719	-2.29856689453125	0		-1.1062606201171874	-0.023498577117919923	0		-0.6910975952148437	-2.33242626953125	0		1.4575250244140625	-0.4955206298828125	0		3.265395751953125	-0.017344106674194337	0		4.697146484375	0.08079322052001953	0		5.6282783203125	0.09135659027099609	0		-0.28505670166015623	5.8661328125	0		
0.007416101932525634	-2.1159599721431733E-4	0		0.46652401733398435	-2.3068623046875	0		-1.03112353515625	-0.02557813835144043	0		-0.645926025390625	-2.3260439453125	0		1.454604248046875	-0.49945864868164064	0		3.2404658203125	-0.02300582504272461	0		4.6973134765625	0.08066974639892578	0		5.626169921875	0.07905718994140624	0		-0.2866127624511719	5.86825146484375	0		
0.004527402877807617	-0.0030879600048065187	0		0.43860784912109374	-2.3053564453125	0		-1.1180987548828125	-0.033061901092529294	0		-0.6709397583007812	-2.330539794921875	0		1.4898184814453126	-0.49500592041015623	0		3.26163720703125	-0.022401224136352538	0		4.69747607421875	0.08055178833007813	0		5.62209033203125	0.09279930114746093	0		-0.2862121276855469	5.8683388671875	0		
0.007728568077087402	-6.044499948620796E-5	0		0.43867010498046877	-2.30529736328125	0		-1.0939498291015626	-0.03332773971557617	0		-0.6959718017578125	-2.33603369140625	0		1.4548763427734375	-0.49942425537109375	0		3.24564697265625	-0.031194955825805663	0		4.7025029296875	0.07236309051513672	0		5.6263583984375	0.07508950805664062	0		-0.26971624755859375	5.87516796875	0		
-0.01405874252319336	0.004372008800506592	0		0.41787698364257814	-2.29589794921875	0		-1.0938057861328125	-0.03320851516723633	0		-0.6789485473632813	-2.338203369140625	0		1.4611151123046875	-0.4924982604980469	0		3.270110595703125	-0.011628216743469238	0		4.70574755859375	0.07821595764160157	0		5.6293896484375	0.08686370086669921	0		-0.2693508605957031	5.87525634765625	0		
0.011056355476379395	0.0030491440296173096	0		0.4708427734375	-2.301688232421875	0		-1.0305352783203126	-0.02510924530029297	0		-0.6996187744140625	-2.32076123046875	0		1.45818408203125	-0.495419921875	0		3.231088134765625	-0.02103043746948242	0		4.69791796875	0.08026028442382813	0		5.6287900390625	0.09015457153320312	0		-0.2841371154785156	5.86759033203125	0		
